<?xml version="1.0" encoding="UTF-8"?>
<svg id="Layer_1" xmlns="http://www.w3.org/2000/svg" version="1.1" viewBox="0 0 898.9 260.3">
  <!-- Generator: Adobe Illustrator 30.5.1, SVG Export Plug-In . SVG Version: 2.1.4 Build 3)  -->
  <defs>
    <style>
      .st0 {
        fill: #173164;
      }

      .st1 {
        fill: #266ff8;
      }

      .st2 {
        fill: #7bb7f7;
      }
    </style>
  </defs>
  <g>
    <path class="st2" d="M228.5,164.8c8.6-8.6,20-12.7,32-12,10.1.7,19.9,5.2,27.7,12.3,11,10.1,16.7,24.6,15.7,39.5-1.7-.7-3.2-1.4-5-1.4h-13.2c-7.8,1-13,7.8-13.6,15.5h-10.8c-9.6-.2-15.5,5.2-17.2,14.8h-13.5c-8.6,1.1-14.7,8.5-14.8,17v9.6c-.1,0-135.1,0-135.1,0-19.8,0-38.9-6.5-53.8-19.3C11.3,227.5,1.6,208.8.1,188.2s2.5-26,9.8-37.2c4.6-7.1,10.3-12.8,17.9-16.8s4.8-3.2,7.1-5.5c3.2,5.9,6.1,12.2,11.2,16.4-17.7,19.2-15.2,50.1,4.3,67,7.3,6.3,16.5,10.7,26.4,10.7l109.8.2c11.1,0,21.3-4,29.5-11.2,12.6-11.1,17.9-28,13-44.2l-.6-2.8Z"/>
    <path class="st2" d="M299.6,260.1h-12.8c-2.5.2-4.9-1.5-4.9-4.1v-37.6c0-3.1,2.3-5.3,5.3-5.3h11.2c2.8,0,5,2.5,5,5.3v37.6c0,2.1-1.6,4.1-3.8,4.1Z"/>
    <path class="st2" d="M295.5,73.4c-.5,1.3-1.7,1.9-2.6,2s-2.4-.6-2.9-1.9l-4-11.1c-1.1-3.1-3.3-5.3-6.4-6.4l-9.9-3.7c-1.2-.4-1.6-1.6-1.5-2.7.4-5.1,14.4-3.1,18.3-13.7l3.7-9.9c.5-1.2,1.7-2,2.7-2s2.1.9,2.5,2.1l3.8,10.8c1,2.9,3.3,5,6.1,6.1l9.8,3.9c1.2.5,2.1,1.6,2.2,2.7s-.8,2.5-2.2,3.1l-10.1,4c-2.8,1.1-4.6,3.4-5.6,6.2l-3.8,10.5Z"/>
    <g>
      <path class="st1" d="M260.6,152.8l-1.7.9c-10.5-.3-20.7,3.4-28.4,10.6l-1.9.5c-3-6.7-6.4-13-12.1-18.2-6.9-6.3-15.9-11.7-25.8-11.7l-107.9-.3c-25.2,0-43.3-22-41.3-47.1,1.6-19.5,9.8-37.5,22.7-52.2C94.8.6,144.5-7,187.7,5.9c14,4.2,26.4,10.8,38.1,19.5s18.4,16.3,24.6,27.2c3.4,6.1,5,12.7,3.1,19.6s-12.5,13.5-21.4,11.4-9.7-4.9-12.3-10.2c-5.6-11.1-21.3-22.2-33.1-27.5-24.8-11-53.6-11.7-77.7,1.3-10.2,5.5-18.5,13.1-24.4,23s-6.1,15.9-1,21.6,7.4,4.9,12.3,5l92.4.3c25.1.7,48.1,14,62.2,34.2,4.8,6.8,7.3,14,9.9,21.5Z"/>
      <g>
        <path class="st0" d="M149.6,185.1c-2.7,6.7-9.5,10.3-16.6,10.3-7.1,0-13.8-3.7-16.5-10.2-.9-2.1-.1-4.4,1.7-5.3s4.1,0,5.2,2.2c1.9,4,6.1,6,10.3,5.7s7.7-2.6,9.6-6.6,3.2-1.9,4.5-1.4c1.9.8,2.8,2.9,1.8,5.2Z"/>
        <circle class="st0" cx="93" cy="170.8" r="9.7"/>
        <circle class="st0" cx="173.4" cy="170.9" r="9.6"/>
      </g>
    </g>
    <path class="st2" d="M272.1,260.2h-14.1c-2.8,0-4.3-2.1-4.3-4.7v-21c-.2-3.4,2.2-6,5.7-5.9h11.7c2.1.1,3.8,2.4,3.8,4.5v22.9c0,1.9-1,3.4-2.9,4.2Z"/>
    <path class="st2" d="M243.9,260.2h-15.2c-1.8,0-3.4-2-3.4-3.7v-7.7c0-3.3,3.1-5,6.2-5h10.3c3.3,0,5.5,2.5,5.5,5.9v6.4c0,2-1.4,3.6-3.4,4.2Z"/>
  </g>
  <g>
    <path class="st0" d="M744.5,166.8c-6.5.4-10.8-4.5-10.5-10.2.3-6,5.6-9.4,11.8-8.8,7.7.7,15.7-1,21.2-6.8,7.4-7.7,7.5-20.4.6-28.4-3.9-4.5-9.6-7-15.5-7h-22c-1.5-.1-3.6,1.3-3.6,3v90.1c0,5.9-5,9.8-10.3,9.8-5.4,0-9.9-4.3-9.9-10.2l.2-97.5c0-8.6,8.1-15,16.2-15.1h26.9c7.5,0,14.6,1.4,21.3,4.4,17.6,7.9,24.5,25.4,21.5,44.2-2.1,13-10.9,23.6-23.6,28.4l24.6,31.3c3.2,4.1.5,10.3-3.2,12.7s-9.9,2.4-13.1-1.6l-29.1-36.7c-.9-1.1-1.6-1.8-3.4-1.6Z"/>
    <path class="st0" d="M423.3,204c-11.3,5.8-28.1,5.7-40.9,4.2-8.8-1-17.3-2.9-25.2-7-5.5-2.9-6.8-10.8-3.1-15.6s7.4-3.9,11.4-2.4c12,4.5,24.6,6.8,37.4,5.4,10.1-1.1,18-7.3,16.8-16.3-1.1-8.7-9.7-11.8-18.3-13.5l-18.2-3.8c-13.7-2.8-26.4-10.3-29.8-24.3-4.9-19.8,5.4-37.6,24.8-43.5,15.7-4.8,35.6-2.4,51.5,1.8s5.7,3.5,6.7,5.9c1.5,3.6,1.1,7.2-1.1,10.1s-6.9,4.5-11,3.5c-10.2-2.5-20.4-3.9-31-3.6s-16.1,3.2-18.4,10.4c-1.5,4.7-1.1,9,1.7,12.6s5.8,4.9,9.5,5.7l18.9,4c15.5,3.3,31,8.6,35.2,25.3,4.1,16.4-1.5,33-16.9,40.9Z"/>
    <path class="st0" d="M625.5,156.1c-1.6,0-2.5.8-2.5,2.2v25.4c0,2.5,2,4.8,4.7,4.8h48.2c5.9,0,10.2,4,10.3,9.6s-4,10-9.8,10h-55.1c-10.1,0-18.4-7.8-18.4-18.1v-86.8c.1-9.3,7.8-17.2,17.1-17.3h53.9c5.9-.1,9.7,5,9.4,10.1-.3,5.9-4.8,9.4-10.8,9.4h-44.9c-2.2,0-4.6,1.8-4.6,4v25.9c0,1.3,1,2,2.2,2l45.3.2c5,0,8,5.3,7.7,9.6-.2,4.5-3.7,8.8-8.7,8.8h-44.1Z"/>
    <path class="st0" d="M885.5,95.7c-8.2-6.4-18-10-28.4-9.9h-28.8c-8.7,0-15.9,7.1-15.9,16v97.5c0,5.7,5.3,9.4,10.2,9.2,5.1-.2,9.6-4.2,9.6-9.6v-29.1c.1-1.6,1.3-2.7,2.9-2.7h21.3c18.3,0,34.4-9.2,40.2-26.4,5.2-15.4,1.9-34.8-11-45ZM873,140.9c-4,4.4-10,6.6-16,6.7h-22.3c-1.3.1-2.3-.7-2.3-2.1v-36.8c0-2,1.3-3.4,3.3-3.4l22,.2c5.9,0,11.4,2.2,15.4,6.6,7.1,7.9,7.2,20.8,0,28.7Z"/>
    <path class="st0" d="M519.5,84.1c-34.7,0-62.8,28.1-62.8,62.8s28.1,62.8,62.8,62.8,62.8-28.1,62.8-62.8-28.1-62.8-62.8-62.8ZM519.5,188.8c-23.1,0-41.8-18.7-41.8-41.8s18.7-41.8,41.8-41.8,41.8,18.7,41.8,41.8-18.7,41.8-41.8,41.8Z"/>
  </g>
</svg>