<?xml version="1.0" encoding="UTF-8"?>
<svg xmlns="http://www.w3.org/2000/svg" version="1.1" viewBox="0 0 305 260.3">
  <defs>
    <style>
      .st0 { fill: #173164; }
      .st1 { fill: #266ff8; }
      .st2 { fill: #7bb7f7; }
    </style>
  </defs>
  <g>
    <path class="st2" d="M228.5,164.8c8.6-8.6,20-12.7,32-12,10.1.7,19.9,5.2,27.7,12.3,11,10.1,16.7,24.6,15.7,39.5-1.7-.7-3.2-1.4-5-1.4h-13.2c-7.8,1-13,7.8-13.6,15.5h-10.8c-9.6-.2-15.5,5.2-17.2,14.8h-13.5c-8.6,1.1-14.7,8.5-14.8,17v9.6c-.1,0-135.1,0-135.1,0-19.8,0-38.9-6.5-53.8-19.3C11.3,227.5,1.6,208.8.1,188.2s2.5-26,9.8-37.2c4.6-7.1,10.3-12.8,17.9-16.8s4.8-3.2,7.1-5.5c3.2,5.9,6.1,12.2,11.2,16.4-17.7,19.2-15.2,50.1,4.3,67,7.3,6.3,16.5,10.7,26.4,10.7l109.8.2c11.1,0,21.3-4,29.5-11.2,12.6-11.1,17.9-28,13-44.2l-.6-2.8Z"/>
    <path class="st2" d="M299.6,260.1h-12.8c-2.5.2-4.9-1.5-4.9-4.1v-37.6c0-3.1,2.3-5.3,5.3-5.3h11.2c2.8,0,5,2.5,5,5.3v37.6c0,2.1-1.6,4.1-3.8,4.1Z"/>
    <path class="st2" d="M295.5,73.4c-.5,1.3-1.7,1.9-2.6,2s-2.4-.6-2.9-1.9l-4-11.1c-1.1-3.1-3.3-5.3-6.4-6.4l-9.9-3.7c-1.2-.4-1.6-1.6-1.5-2.7.4-5.1,14.4-3.1,18.3-13.7l3.7-9.9c.5-1.2,1.7-2,2.7-2s2.1.9,2.5,2.1l3.8,10.8c1,2.9,3.3,5,6.1,6.1l9.8,3.9c1.2.5,2.1,1.6,2.2,2.7s-.8,2.5-2.2,3.1l-10.1,4c-2.8,1.1-4.6,3.4-5.6,6.2l-3.8,10.5Z"/>
    <g>
      <path class="st1" d="M260.6,152.8l-1.7.9c-10.5-.3-20.7,3.4-28.4,10.6l-1.9.5c-3-6.7-6.4-13-12.1-18.2-6.9-6.3-15.9-11.7-25.8-11.7l-107.9-.3c-25.2,0-43.3-22-41.3-47.1,1.6-19.5,9.8-37.5,22.7-52.2C94.8.6,144.5-7,187.7,5.9c14,4.2,26.4,10.8,38.1,19.5s18.4,16.3,24.6,27.2c3.4,6.1,5,12.7,3.1,19.6s-12.5,13.5-21.4,11.4-9.7-4.9-12.3-10.2c-5.6-11.1-21.3-22.2-33.1-27.5-24.8-11-53.6-11.7-77.7,1.3-10.2,5.5-18.5,13.1-24.4,23s-6.1,15.9-1,21.6,7.4,4.9,12.3,5l92.4.3c25.1.7,48.1,14,62.2,34.2,4.8,6.8,7.3,14,9.9,21.5Z"/>
      <g>
        <path class="st0" d="M149.6,185.1c-2.7,6.7-9.5,10.3-16.6,10.3-7.1,0-13.8-3.7-16.5-10.2-.9-2.1-.1-4.4,1.7-5.3s4.1,0,5.2,2.2c1.9,4,6.1,6,10.3,5.7s7.7-2.6,9.6-6.6,3.2-1.9,4.5-1.4c1.9.8,2.8,2.9,1.8,5.2Z"/>
        <circle class="st0" cx="93" cy="170.8" r="9.7"/>
        <circle class="st0" cx="173.4" cy="170.9" r="9.6"/>
      </g>
    </g>
    <path class="st2" d="M272.1,260.2h-14.1c-2.8,0-4.3-2.1-4.3-4.7v-21c-.2-3.4,2.2-6,5.7-5.9h11.7c2.1.1,3.8,2.4,3.8,4.5v22.9c0,1.9-1,3.4-2.9,4.2Z"/>
    <path class="st2" d="M243.9,260.2h-15.2c-1.8,0-3.4-2-3.4-3.7v-7.7c0-3.3,3.1-5,6.2-5h10.3c3.3,0,5.5,2.5,5.5,5.9v6.4c0,2-1.4,3.6-3.4,4.2Z"/>
  </g>
</svg>
